<svg xmlns="http://www.w3.org/2000/svg" viewBox="0 0 70 40"><path fill-rule="evenodd" clip-rule="evenodd" fill="#ff6000" d="M62.08 36.458c-3.34.11-5.78-1.39-8.617-2.22-7.08-2.07-12.757-1.645-16.158-.94.66-.7 1.064-1.644 1.064-2.68 0-1.944-1.422-3.557-3.285-3.868v-2.715c1.843-.33 3.24-1.93 3.24-3.86 0-1.927-1.397-3.53-3.24-3.86v-2.704c.954-.16 1.792-.66 2.382-1.37l2.347 1.347c-.15.416-.233.863-.233 1.33 0 1.944 1.422 3.556 3.286 3.868v2.7c-1.864.313-3.285 1.925-3.285 3.87 0 2.165 1.766 3.92 3.943 3.92 2.178 0 3.942-1.755 3.942-3.92 0-1.945-1.42-3.557-3.285-3.87v-2.7c1.864-.312 3.285-1.924 3.285-3.868 0-2.166-1.764-3.92-3.942-3.92-1.237 0-2.34.566-3.063 1.453l-2.335-1.342c.158-.425.244-.885.244-1.365 0-2.047-1.576-3.727-3.587-3.905-.09-.01-.183-.018-.275-.02L34.516 0c.33.244.562.474.902.706.33.242.746.522 1.265.822 5.267 3.264 11.472 5.146 18.114 5.146 5.016 0 9.854-.52 14.154-2.45l.024 25.49s.046.547-.02.685c-.466 3.347-2.28 5.908-6.874 6.058zm-28.3-20.17c-1.885.295-3.328 1.917-3.328 3.875s1.443 3.58 3.33 3.874v2.7c-.968.162-1.815.673-2.407 1.398l-2.41-1.384c.15-.414.234-.862.234-1.328 0-1.943-1.422-3.556-3.287-3.867v-2.702c1.865-.31 3.286-1.925 3.286-3.867 0-2.167-1.767-3.922-3.944-3.922s-3.942 1.756-3.942 3.922c0 1.942 1.42 3.556 3.285 3.867v2.702c-1.866.31-3.286 1.924-3.286 3.867 0 2.165 1.765 3.92 3.942 3.92 1.238 0 2.34-.565 3.063-1.453l2.41 1.383c-.152.415-.235.864-.235 1.33 0 2.16 1.862 3.91 4.028 3.923l-.016 4.47C31.77 34.61 24.69 31.4 16.22 31.04c-.7-.04-1.41-.06-2.127-.06-5.02 0-9.788 1.15-14.093 3.22L.01 1.68s6.672 4.235 15.496 3.98c6.35-.182 5.008-.555 9.04-.698 5.286-.187 9.278 3.404 9.268 8.644l-.007 2.608-.026.075z"/></svg>
